<svg xmlns="http://www.w3.org/2000/svg" viewBox="0 0 48 48">
  <defs>
    <linearGradient id="g" x1="0" y1="0" x2="1" y2="1">
      <stop offset="0" stop-color="#25d366"/>
      <stop offset="1" stop-color="#128C7E"/>
    </linearGradient>
  </defs>
  <circle cx="24" cy="24" r="20" fill="url(#g)"/>
  <path fill="#fff" d="M36 24c0-6.6-5.4-12-12-12S12 17.4 12 24c0 2.4.7 4.6 2 6.5l-1.3 4.7 4.9-1.3c1.8 1.1 3.9 1.8 6.4 1.8 6.6 0 12-5.4 12-12zm-16 2.7c-1-.4-2.1-1.1-2.9-2.1-.4-.5-.2-1.2.3-1.6.5-.4 1.2-.2 1.6.3.4.6 1.6 1.6 2.5 1.9.6.2 1.3 0 1.8-.5l.6-.7c.4-.5 1.2-.6 1.7-.2.5.4.6 1.2.2 1.7l-.7.9c-.9 1.1-2.5 1.6-3.9 1.3z"/>
</svg>
