<svg xmlns="http://www.w3.org/2000/svg" viewBox="0 0 48 48">
  <defs><linearGradient id="g" x1="0" y1="0" x2="1" y2="1">
    <stop offset="0" stop-color="#25d366"/><stop offset="1" stop-color="#128C7E"/>
  </linearGradient></defs>
  <circle cx="24" cy="24" r="20" fill="url(#g)"/>
  <path fill="#fff" d="M36 24c0-6.6-5.4-12-12-12S12 17.4 12 24c0 2.4.7 4.6 2 6.5l-1.3 4.7 4.9-1.3c1.8 1.1 3.9 1.8 6.4 1.8 6.6 0 12-5.4 12-12zm-16 1.7c-1.3-2.1-.4-3.7.5-4.1.6-.3 1.3-.2 1.9.3l1.2 1c.6.5 1.1.6 1.6.4l2.4-.9c.8-.3 1.4 0 1.7.5.2.5.4 1.4-.2 2.3-1.2 1.9-3.5 4-6.4 4-1.1 0-2.1-.4-2.7-1.1z"/>
</svg>